<svg xmlns="http://www.w3.org/2000/svg" xmlns:xlink="http://www.w3.org/1999/xlink" width="500" zoomAndPan="magnify" viewBox="0 0 375 374.999991" height="500" preserveAspectRatio="xMidYMid meet" version="1.0"><defs><clipPath id="964f63e035"><path d="M 23 204 L 179 204 L 179 359.035156 L 23 359.035156 Z M 23 204 " clip-rule="nonzero"/></clipPath></defs><path fill="#99b4cd" d="M 171.667969 247.046875 C 172.640625 247.046875 173.613281 246.660156 174.390625 245.878906 L 194.222656 225.824219 C 197.332031 222.707031 193.832031 218.230469 190.527344 219.398438 L 163.304688 191.746094 C 164.082031 188.4375 159.804688 185.128906 156.695312 188.242188 L 136.863281 208.300781 C 133.945312 211.023438 136.667969 215.699219 140.554688 214.726562 L 167.777344 242.179688 C 167.195312 244.324219 168.945312 247.046875 171.667969 247.046875 Z M 171.667969 247.046875 " fill-opacity="1" fill-rule="evenodd"/><path fill="#c4d7e5" d="M 247.5 243.152344 C 275.113281 243.152344 302.722656 232.640625 323.917969 211.609375 C 365.917969 169.355469 365.917969 100.8125 323.917969 58.558594 C 281.722656 16.304688 213.082031 16.304688 171.082031 58.558594 C 128.890625 100.617188 128.890625 169.355469 171.082031 211.609375 C 192.082031 232.640625 219.695312 243.152344 247.5 243.152344 Z M 247.5 243.152344 " fill-opacity="1" fill-rule="evenodd"/><path fill="#70b7e5" d="M 247.5 219.59375 C 322.554688 219.59375 360.277344 128.464844 307.195312 75.109375 C 254.113281 21.953125 162.917969 60.117188 162.917969 135.085938 C 162.917969 181.816406 200.832031 219.59375 247.5 219.59375 Z M 247.5 219.59375 " fill-opacity="1" fill-rule="evenodd"/><g clip-path="url(#964f63e035)"><path fill="#bf6122" d="M 71.332031 359.011719 C 76.195312 359.011719 80.472656 357.261719 83.777344 353.558594 L 177.113281 248.21875 C 178.472656 246.660156 178.472656 244.324219 176.917969 242.960938 L 139.777344 205.574219 C 138.222656 204.210938 135.890625 204.210938 134.332031 205.378906 L 29.332031 299.039062 C 8.917969 317.148438 51.113281 359.011719 71.332031 359.011719 Z M 71.332031 359.011719 " fill-opacity="1" fill-rule="evenodd"/></g><path fill="#ac571f" d="M 92.917969 343.046875 L 98.167969 337.203125 L 45.472656 284.433594 L 39.640625 289.691406 Z M 92.917969 343.046875 " fill-opacity="1" fill-rule="evenodd"/><path fill="#ac571f" d="M 60.832031 334.867188 C 64.332031 334.867188 66.082031 330.582031 63.554688 328.050781 L 54.417969 319.09375 C 50.917969 315.394531 45.277344 320.847656 48.972656 324.546875 C 52.277344 327.855469 57.917969 334.867188 60.832031 334.867188 Z M 60.832031 334.867188 " fill-opacity="1" fill-rule="evenodd"/><path fill="#68adde" d="M 269.863281 216.671875 C 319.054688 193.304688 336.75 123.984375 293.195312 80.367188 C 269.667969 56.808594 238.75 51.160156 211.527344 58.558594 C 241.667969 44.539062 279.582031 47.460938 307.195312 75.109375 C 354.640625 122.816406 329.363281 200.898438 269.863281 216.671875 Z M 269.863281 216.671875 " fill-opacity="1" fill-rule="evenodd"/><path fill="#e9f1ff" d="M 247.5 219.59375 C 270.054688 219.59375 289.5 211.21875 303.890625 198.171875 L 303.695312 174.417969 C 302.722656 160.203125 279.390625 147.742188 265 147.742188 C 264.417969 147.742188 263.640625 147.742188 263.054688 147.742188 L 245.75 167.601562 L 228.640625 147.742188 C 228.054688 147.742188 227.277344 147.742188 226.695312 147.742188 C 213.082031 147.742188 188 158.839844 187.804688 174.417969 L 187.804688 195.058594 C 203.167969 210.246094 224.167969 219.59375 247.5 219.59375 Z M 247.5 219.59375 " fill-opacity="1" fill-rule="evenodd"/><path fill="#f66b51" d="M 247.5 219.59375 C 250.417969 219.59375 253.332031 219.59375 256.25 219.203125 L 253.140625 187.660156 C 252.945312 186.296875 251.777344 185.515625 250.417969 185.90625 C 244.777344 188.046875 240.304688 184.542969 239.917969 188.046875 L 236.804688 219.007812 C 240.304688 219.398438 243.804688 219.59375 247.5 219.59375 Z M 247.5 219.59375 " fill-opacity="1" fill-rule="evenodd"/><path fill="#cdd5f6" d="M 207.054688 209.46875 C 209 210.441406 211.140625 211.414062 213.082031 212.386719 L 213.082031 184.933594 C 213.082031 181.039062 207.054688 181.039062 207.054688 184.933594 Z M 207.054688 209.46875 " fill-opacity="1" fill-rule="evenodd"/><path fill="#cdd5f6" d="M 278.613281 213.945312 C 280.554688 213.167969 282.695312 212.195312 284.640625 211.21875 L 284.640625 184.933594 C 284.640625 181.039062 278.613281 181.039062 278.613281 184.933594 Z M 278.613281 213.945312 " fill-opacity="1" fill-rule="evenodd"/><path fill="#f55a3e" d="M 247.890625 190.773438 L 244.195312 190.773438 C 236.222656 190.773438 231.945312 180.648438 236.613281 180.257812 L 236.613281 171.886719 L 258.972656 171.886719 L 256.25 180.453125 C 259.554688 182.011719 255.082031 190.773438 247.890625 190.773438 Z M 247.890625 190.773438 " fill-opacity="1" fill-rule="evenodd"/><path fill="#cdd5f6" d="M 263.054688 147.742188 C 269.472656 147.9375 273.75 148.519531 281.140625 151.441406 L 261.890625 189.605469 C 261.304688 190.578125 259.363281 190.96875 258.390625 189.605469 L 244.390625 171.886719 C 243.613281 170.914062 243.804688 169.550781 244.777344 168.964844 Z M 263.054688 147.742188 " fill-opacity="1" fill-rule="evenodd"/><path fill="#cdd5f6" d="M 210.363281 151.246094 C 217.945312 148.324219 222.417969 147.9375 228.640625 147.742188 L 246.917969 168.964844 C 247.890625 169.746094 248.082031 170.914062 247.304688 171.886719 L 233.113281 189.605469 C 232.140625 190.96875 230.390625 190.578125 229.804688 189.605469 Z M 210.363281 151.246094 " fill-opacity="1" fill-rule="evenodd"/><path fill="#ff9e7c" d="M 232.527344 134.695312 C 231.75 132.941406 228.640625 133.332031 228.640625 135.667969 L 228.640625 147.742188 L 245.75 167.601562 L 263.054688 147.742188 L 263.054688 135.667969 C 263.054688 133.136719 259.554688 132.941406 258.972656 135.085938 Z M 232.527344 134.695312 " fill-opacity="1" fill-rule="evenodd"/><path fill="#ffaf8a" d="M 245.75 142.679688 C 228.445312 142.679688 214.25 126.515625 214.25 106.65625 L 214.25 89.128906 C 214.25 86.792969 217.363281 86.40625 218.332031 88.15625 L 254.304688 79.980469 L 273.75 88.742188 C 274.917969 87.574219 277.25 88.15625 277.25 90.105469 L 277.25 106.65625 C 277.25 126.515625 263.25 142.679688 245.75 142.679688 Z M 245.75 142.679688 " fill-opacity="1" fill-rule="evenodd"/><path fill="#333333" d="M 274.332031 99.257812 C 266.363281 99.257812 258.195312 88.15625 255.082031 83.289062 C 235.640625 99.644531 224.75 81.148438 218.332031 96.917969 C 217.363281 98.867188 214.25 98.28125 214.25 96.140625 C 214.25 92.832031 214.25 90.882812 214.25 89.128906 C 214.640625 81.339844 215.027344 84.652344 207.640625 76.085938 C 207.054688 75.304688 207.054688 74.332031 207.640625 73.554688 C 214.054688 65.570312 227.472656 59.339844 239.140625 58.949219 C 247.890625 58.558594 255.082031 61.089844 260.332031 66.347656 C 264.027344 66.738281 277.25 69.660156 277.25 87.765625 L 277.25 97.113281 C 277.25 98.867188 275.695312 99.257812 274.332031 99.257812 Z M 274.332031 99.257812 " fill-opacity="1" fill-rule="evenodd"/><path fill="#ff8e70" d="M 237.972656 107.824219 C 237.582031 107.824219 233.5 106.460938 231.167969 107.628906 C 230.195312 108.214844 228.832031 107.628906 228.445312 106.65625 C 226.304688 101.789062 242.054688 101.789062 239.917969 106.65625 C 239.527344 107.433594 238.75 107.824219 237.972656 107.824219 Z M 237.972656 107.824219 " fill-opacity="1" fill-rule="evenodd"/><path fill="#ff8e70" d="M 261.304688 107.824219 C 260.917969 107.824219 256.832031 106.460938 254.5 107.628906 C 251.972656 108.796875 250.417969 104.902344 252.75 103.929688 C 255.667969 102.566406 265 102.566406 263.25 106.65625 C 262.863281 107.433594 262.082031 107.824219 261.304688 107.824219 Z M 261.304688 107.824219 " fill-opacity="1" fill-rule="evenodd"/><path fill="#ff8e70" d="M 245.945312 127.878906 C 240.5 127.878906 233.5 124.179688 236.222656 121.257812 C 237 120.480469 238.363281 120.480469 239.140625 121.257812 C 242.640625 124.570312 249.054688 124.570312 252.554688 121.257812 C 254.5 119.3125 257.417969 122.425781 255.472656 124.375 C 252.945312 126.710938 249.445312 127.878906 245.945312 127.878906 Z M 245.945312 127.878906 " fill-opacity="1" fill-rule="evenodd"/></svg>